<svg xmlns="http://www.w3.org/2000/svg" width="1080" height="1620" viewBox="0 0 1080 1620">
<defs>
<filter id="grain" x="0" y="0" width="100%" height="100%"><feTurbulence type="fractalNoise" baseFrequency=".9" numOctaves="2" stitchTiles="stitch"/><feColorMatrix values="0 0 0 0 1  0 0 0 0 1  0 0 0 0 1  0 0 0 .06 0"/></filter>
<filter id="blur40"><feGaussianBlur stdDeviation="40"/></filter>
<filter id="blur12"><feGaussianBlur stdDeviation="12"/></filter>
<linearGradient id="fade" x1="0" y1="0" x2="0" y2="1"><stop offset=".45" stop-color="#3b0a0a" stop-opacity="0"/><stop offset=".86" stop-color="#3b0a0a" stop-opacity="1"/></linearGradient>
<radialGradient id="bg" cx="74%" cy="26%" r="90%"><stop offset="0" stop-color="#ffb347"/><stop offset=".25" stop-color="#e2531a"/><stop offset=".6" stop-color="#7a1a0c"/><stop offset="1" stop-color="#3b0a0a"/></radialGradient>
<radialGradient id="core" cx="50%" cy="50%" r="50%"><stop offset="0" stop-color="#fffbe6"/><stop offset=".4" stop-color="#ffd166"/><stop offset="1" stop-color="#ffd166" stop-opacity="0"/></radialGradient>
</defs>
<rect width="1080" height="1620" fill="url(#bg)"/><path d="M800 420 L2073 380 L2073 458 Z" fill="#ffd166" opacity="0.12"/><path d="M800 420 L1667 528 L1658 584 Z" fill="#ffd166" opacity="0.17"/><path d="M800 420 L1986 729 L1948 850 Z" fill="#ffd166" opacity="0.08"/><path d="M800 420 L1471 767 L1446 812 Z" fill="#ffd166" opacity="0.22"/><path d="M800 420 L1536 938 L1481 1008 Z" fill="#ffd166" opacity="0.06"/><path d="M800 420 L1548 1158 L1463 1235 Z" fill="#ffd166" opacity="0.22"/><path d="M800 420 L1450 1345 L1360 1402 Z" fill="#ffd166" opacity="0.20"/><path d="M800 420 L1263 1519 L1159 1557 Z" fill="#ffd166" opacity="0.06"/><path d="M800 420 L1087 1594 L977 1615 Z" fill="#ffd166" opacity="0.09"/><path d="M800 420 L876 1463 L774 1465 Z" fill="#ffd166" opacity="0.18"/><path d="M800 420 L652 1645 L495 1616 Z" fill="#ffd166" opacity="0.08"/><path d="M800 420 L553 1140 L460 1100 Z" fill="#ffd166" opacity="0.13"/><path d="M800 420 L265 1465 L187 1422 Z" fill="#ffd166" opacity="0.12"/><path d="M800 420 L336 962 L297 926 Z" fill="#ffd166" opacity="0.20"/><path d="M800 420 L-59 1231 L-155 1117 Z" fill="#ffd166" opacity="0.07"/><path d="M800 420 L116 829 L80 763 Z" fill="#ffd166" opacity="0.06"/><path d="M800 420 L-269 810 L-294 733 Z" fill="#ffd166" opacity="0.07"/><path d="M800 420 L-81 649 L-99 564 Z" fill="#ffd166" opacity="0.17"/><path d="M800 420 L-29 467 L-30 406 Z" fill="#ffd166" opacity="0.19"/><path d="M800 420 L24 311 L45 209 Z" fill="#ffd166" opacity="0.11"/><path d="M800 420 L-25 140 L19 34 Z" fill="#ffd166" opacity="0.16"/><path d="M800 420 L33 39 L89 -57 Z" fill="#ffd166" opacity="0.14"/><path d="M800 420 L-201 -323 L-113 -430 Z" fill="#ffd166" opacity="0.17"/><path d="M800 420 L209 -301 L258 -339 Z" fill="#ffd166" opacity="0.06"/><path d="M800 420 L105 -654 L189 -703 Z" fill="#ffd166" opacity="0.16"/><path d="M800 420 L297 -670 L454 -729 Z" fill="#ffd166" opacity="0.15"/><path d="M800 420 L553 -681 L631 -695 Z" fill="#ffd166" opacity="0.17"/><path d="M800 420 L802 -814 L882 -811 Z" fill="#ffd166" opacity="0.14"/><path d="M800 420 L1015 -728 L1089 -712 Z" fill="#ffd166" opacity="0.16"/><path d="M800 420 L1087 -630 L1183 -599 Z" fill="#ffd166" opacity="0.18"/><path d="M800 420 L1242 -506 L1302 -475 Z" fill="#ffd166" opacity="0.20"/><path d="M800 420 L1342 -269 L1418 -201 Z" fill="#ffd166" opacity="0.20"/><path d="M800 420 L1695 -398 L1795 -273 Z" fill="#ffd166" opacity="0.08"/><path d="M800 420 L1559 -122 L1624 -16 Z" fill="#ffd166" opacity="0.11"/><path d="M800 420 L1958 -103 L2013 42 Z" fill="#ffd166" opacity="0.16"/><path d="M800 420 L1983 162 L2007 326 Z" fill="#ffd166" opacity="0.16"/><line x1="1149" y1="563" x2="1186" y2="579" stroke="#ffe7a3" stroke-width="3.6" stroke-linecap="round" opacity="0.65"/><line x1="667" y1="617" x2="644" y2="650" stroke="#ffe7a3" stroke-width="3.4" stroke-linecap="round" opacity="0.69"/><line x1="1228" y1="213" x2="1264" y2="195" stroke="#ffe7a3" stroke-width="4.2" stroke-linecap="round" opacity="0.70"/><line x1="408" y1="180" x2="374" y2="159" stroke="#ffe7a3" stroke-width="2.6" stroke-linecap="round" opacity="0.80"/><line x1="424" y1="215" x2="389" y2="196" stroke="#ffe7a3" stroke-width="2.7" stroke-linecap="round" opacity="0.87"/><line x1="486" y1="565" x2="450" y2="582" stroke="#ffe7a3" stroke-width="4.7" stroke-linecap="round" opacity="0.40"/><line x1="1023" y1="482" x2="1061" y2="493" stroke="#ffe7a3" stroke-width="4.0" stroke-linecap="round" opacity="0.72"/><line x1="898" y1="92" x2="909" y2="54" stroke="#ffe7a3" stroke-width="4.2" stroke-linecap="round" opacity="0.52"/><line x1="1036" y1="-22" x2="1055" y2="-58" stroke="#ffe7a3" stroke-width="3.8" stroke-linecap="round" opacity="0.81"/><line x1="605" y1="110" x2="584" y2="76" stroke="#ffe7a3" stroke-width="4.5" stroke-linecap="round" opacity="0.65"/><line x1="608" y1="607" x2="579" y2="635" stroke="#ffe7a3" stroke-width="4.7" stroke-linecap="round" opacity="0.49"/><line x1="1015" y1="486" x2="1053" y2="498" stroke="#ffe7a3" stroke-width="2.8" stroke-linecap="round" opacity="0.44"/><line x1="973" y1="-46" x2="987" y2="-83" stroke="#ffe7a3" stroke-width="2.7" stroke-linecap="round" opacity="0.62"/><line x1="1185" y1="651" x2="1219" y2="671" stroke="#ffe7a3" stroke-width="4.4" stroke-linecap="round" opacity="0.84"/><line x1="949" y1="529" x2="981" y2="553" stroke="#ffe7a3" stroke-width="4.1" stroke-linecap="round" opacity="0.60"/><line x1="922" y1="314" x2="952" y2="287" stroke="#ffe7a3" stroke-width="3.0" stroke-linecap="round" opacity="0.85"/><line x1="990" y1="316" x2="1025" y2="297" stroke="#ffe7a3" stroke-width="4.8" stroke-linecap="round" opacity="0.88"/><line x1="983" y1="394" x2="1023" y2="389" stroke="#ffe7a3" stroke-width="3.1" stroke-linecap="round" opacity="0.81"/><line x1="967" y1="588" x2="995" y2="617" stroke="#ffe7a3" stroke-width="4.1" stroke-linecap="round" opacity="0.81"/><line x1="963" y1="293" x2="995" y2="268" stroke="#ffe7a3" stroke-width="4.2" stroke-linecap="round" opacity="0.73"/><line x1="938" y1="138" x2="956" y2="102" stroke="#ffe7a3" stroke-width="4.3" stroke-linecap="round" opacity="0.52"/><line x1="1241" y1="537" x2="1280" y2="547" stroke="#ffe7a3" stroke-width="3.7" stroke-linecap="round" opacity="0.74"/><line x1="1263" y1="185" x2="1299" y2="167" stroke="#ffe7a3" stroke-width="2.7" stroke-linecap="round" opacity="0.69"/><line x1="318" y1="505" x2="279" y2="512" stroke="#ffe7a3" stroke-width="4.0" stroke-linecap="round" opacity="0.52"/><line x1="1064" y1="185" x2="1094" y2="159" stroke="#ffe7a3" stroke-width="2.6" stroke-linecap="round" opacity="0.62"/><line x1="1154" y1="153" x2="1186" y2="129" stroke="#ffe7a3" stroke-width="3.5" stroke-linecap="round" opacity="0.90"/><line x1="822" y1="41" x2="825" y2="1" stroke="#ffe7a3" stroke-width="3.1" stroke-linecap="round" opacity="0.53"/><line x1="1222" y1="411" x2="1262" y2="410" stroke="#ffe7a3" stroke-width="4.6" stroke-linecap="round" opacity="0.59"/><line x1="987" y1="469" x2="1026" y2="479" stroke="#ffe7a3" stroke-width="4.4" stroke-linecap="round" opacity="0.62"/><line x1="1176" y1="511" x2="1215" y2="520" stroke="#ffe7a3" stroke-width="3.3" stroke-linecap="round" opacity="0.67"/><line x1="610" y1="794" x2="592" y2="829" stroke="#ffe7a3" stroke-width="2.2" stroke-linecap="round" opacity="0.53"/><line x1="444" y1="350" x2="405" y2="342" stroke="#ffe7a3" stroke-width="4.4" stroke-linecap="round" opacity="0.41"/><line x1="698" y1="540" x2="672" y2="571" stroke="#ffe7a3" stroke-width="4.4" stroke-linecap="round" opacity="0.54"/><line x1="1198" y1="451" x2="1238" y2="454" stroke="#ffe7a3" stroke-width="4.8" stroke-linecap="round" opacity="0.70"/><line x1="587" y1="601" x2="556" y2="627" stroke="#ffe7a3" stroke-width="4.8" stroke-linecap="round" opacity="0.47"/><line x1="597" y1="136" x2="574" y2="104" stroke="#ffe7a3" stroke-width="2.1" stroke-linecap="round" opacity="0.41"/><line x1="490" y1="129" x2="460" y2="102" stroke="#ffe7a3" stroke-width="4.5" stroke-linecap="round" opacity="0.77"/><line x1="749" y1="160" x2="741" y2="120" stroke="#ffe7a3" stroke-width="4.1" stroke-linecap="round" opacity="0.78"/><line x1="1255" y1="555" x2="1293" y2="566" stroke="#ffe7a3" stroke-width="2.9" stroke-linecap="round" opacity="0.74"/><line x1="1163" y1="729" x2="1194" y2="755" stroke="#ffe7a3" stroke-width="2.9" stroke-linecap="round" opacity="0.73"/><line x1="973" y1="419" x2="1013" y2="419" stroke="#ffe7a3" stroke-width="2.2" stroke-linecap="round" opacity="0.87"/><line x1="756" y1="196" x2="748" y2="157" stroke="#ffe7a3" stroke-width="2.6" stroke-linecap="round" opacity="0.76"/><line x1="1277" y1="320" x2="1316" y2="312" stroke="#ffe7a3" stroke-width="3.0" stroke-linecap="round" opacity="0.86"/><line x1="838" y1="594" x2="846" y2="633" stroke="#ffe7a3" stroke-width="4.3" stroke-linecap="round" opacity="0.86"/><line x1="486" y1="378" x2="446" y2="372" stroke="#ffe7a3" stroke-width="3.0" stroke-linecap="round" opacity="0.72"/><line x1="1042" y1="727" x2="1067" y2="759" stroke="#ffe7a3" stroke-width="2.1" stroke-linecap="round" opacity="0.51"/><line x1="799" y1="-83" x2="799" y2="-123" stroke="#ffe7a3" stroke-width="2.3" stroke-linecap="round" opacity="0.64"/><line x1="1135" y1="47" x2="1162" y2="17" stroke="#ffe7a3" stroke-width="4.8" stroke-linecap="round" opacity="0.59"/><line x1="664" y1="619" x2="641" y2="652" stroke="#ffe7a3" stroke-width="4.5" stroke-linecap="round" opacity="0.74"/><line x1="627" y1="307" x2="594" y2="285" stroke="#ffe7a3" stroke-width="4.2" stroke-linecap="round" opacity="0.69"/><line x1="1086" y1="504" x2="1125" y2="515" stroke="#ffe7a3" stroke-width="3.3" stroke-linecap="round" opacity="0.57"/><line x1="675" y1="610" x2="653" y2="644" stroke="#ffe7a3" stroke-width="2.0" stroke-linecap="round" opacity="0.41"/><line x1="998" y1="605" x2="1028" y2="633" stroke="#ffe7a3" stroke-width="4.9" stroke-linecap="round" opacity="0.75"/><line x1="1169" y1="627" x2="1204" y2="646" stroke="#ffe7a3" stroke-width="4.4" stroke-linecap="round" opacity="0.72"/><line x1="964" y1="581" x2="993" y2="610" stroke="#ffe7a3" stroke-width="3.0" stroke-linecap="round" opacity="0.59"/><line x1="291" y1="365" x2="252" y2="360" stroke="#ffe7a3" stroke-width="4.6" stroke-linecap="round" opacity="0.49"/><line x1="479" y1="339" x2="440" y2="330" stroke="#ffe7a3" stroke-width="3.0" stroke-linecap="round" opacity="0.79"/><line x1="528" y1="669" x2="498" y2="696" stroke="#ffe7a3" stroke-width="3.7" stroke-linecap="round" opacity="0.69"/><line x1="891" y1="226" x2="907" y2="190" stroke="#ffe7a3" stroke-width="2.1" stroke-linecap="round" opacity="0.89"/><line x1="501" y1="208" x2="469" y2="185" stroke="#ffe7a3" stroke-width="4.9" stroke-linecap="round" opacity="0.45"/>
<circle cx="800" cy="420" r="260" fill="url(#core)"/>
<rect width="1080" height="1620" filter="url(#grain)"/>
<rect width="1080" height="1620" fill="url(#fade)"/>
</svg>